<?xml version="1.0" encoding="UTF-8"?>
<svg xmlns="http://www.w3.org/2000/svg" xmlns:xlink="http://www.w3.org/1999/xlink" width="401pt" height="226pt" viewBox="0 0 401 226" version="1.1">
<defs>
<clipPath id="clip1">
  <path d="M 57 9 L 60 9 L 60 178.875 L 57 178.875 Z M 57 9 "/>
</clipPath>
<clipPath id="clip2">
  <path d="M 97 9 L 100 9 L 100 178.875 L 97 178.875 Z M 97 9 "/>
</clipPath>
<clipPath id="clip3">
  <path d="M 137 9 L 140 9 L 140 178.875 L 137 178.875 Z M 137 9 "/>
</clipPath>
<clipPath id="clip4">
  <path d="M 177 9 L 179 9 L 179 178.875 L 177 178.875 Z M 177 9 "/>
</clipPath>
<clipPath id="clip5">
  <path d="M 217 9 L 219 9 L 219 178.875 L 217 178.875 Z M 217 9 "/>
</clipPath>
<clipPath id="clip6">
  <path d="M 257 9 L 259 9 L 259 178.875 L 257 178.875 Z M 257 9 "/>
</clipPath>
<clipPath id="clip7">
  <path d="M 297 9 L 299 9 L 299 178.875 L 297 178.875 Z M 297 9 "/>
</clipPath>
<clipPath id="clip8">
  <path d="M 337 9 L 339 9 L 339 178.875 L 337 178.875 Z M 337 9 "/>
</clipPath>
<clipPath id="clip9">
  <path d="M 376 9 L 379 9 L 379 178.875 L 376 178.875 Z M 376 9 "/>
</clipPath>
<clipPath id="clip10">
  <path d="M 42.800781 170 L 391.550781 170 L 391.550781 172 L 42.800781 172 Z M 42.800781 170 "/>
</clipPath>
<clipPath id="clip11">
  <path d="M 42.800781 131 L 391.550781 131 L 391.550781 133 L 42.800781 133 Z M 42.800781 131 "/>
</clipPath>
<clipPath id="clip12">
  <path d="M 42.800781 92 L 391.550781 92 L 391.550781 94 L 42.800781 94 Z M 42.800781 92 "/>
</clipPath>
<clipPath id="clip13">
  <path d="M 42.800781 53 L 391.550781 53 L 391.550781 55 L 42.800781 55 Z M 42.800781 53 "/>
</clipPath>
<clipPath id="clip14">
  <path d="M 42.800781 14 L 391.550781 14 L 391.550781 16 L 42.800781 16 Z M 42.800781 14 "/>
</clipPath>
</defs>
<g id="surface1">
<path style=" stroke:none;fill-rule:nonzero;fill:rgb(100%,100%,100%);fill-opacity:1;" d="M 42.800781 178.875 L 391.550781 178.875 L 391.550781 9 L 42.800781 9 Z M 42.800781 178.875 "/>
<g clip-path="url(#clip1)" clip-rule="nonzero">
<path style="fill:none;stroke-width:0.8;stroke-linecap:square;stroke-linejoin:round;stroke:rgb(69.019608%,69.019608%,69.019608%);stroke-opacity:1;stroke-miterlimit:4;" d="M 46.921875 143.1 L 46.921875 7.2 " transform="matrix(1.25,0,0,1.25,0,0)"/>
</g>
<path style="fill:none;stroke-width:0.8;stroke-linecap:butt;stroke-linejoin:round;stroke:rgb(0%,0%,0%);stroke-opacity:1;stroke-miterlimit:4;" d="M -0.000568 0 L -0.000568 3.5 " transform="matrix(1.25,0,0,1.25,58.653054,178.875)"/>
<path style=" stroke:none;fill-rule:nonzero;fill:rgb(0%,0%,0%);fill-opacity:1;" d="M 50.761719 192.6875 L 58.585938 192.6875 L 58.585938 193.722656 L 50.761719 193.722656 Z M 50.761719 192.6875 "/>
<path style=" stroke:none;fill-rule:nonzero;fill:rgb(0%,0%,0%);fill-opacity:1;" d="M 63.886719 192.796875 C 63.300781 192.796875 62.839844 192.953125 62.503906 193.265625 C 62.167969 193.578125 62 194.011719 62 194.558594 C 62 195.109375 62.167969 195.539062 62.503906 195.855469 C 62.839844 196.167969 63.300781 196.324219 63.886719 196.324219 C 64.472656 196.324219 64.933594 196.167969 65.269531 195.851562 C 65.609375 195.535156 65.777344 195.105469 65.777344 194.558594 C 65.777344 194.011719 65.609375 193.578125 65.273438 193.265625 C 64.941406 192.953125 64.476562 192.796875 63.886719 192.796875 Z M 62.652344 192.273438 C 62.125 192.140625 61.710938 191.894531 61.417969 191.535156 C 61.121094 191.171875 60.976562 190.726562 60.976562 190.207031 C 60.976562 189.480469 61.234375 188.902344 61.753906 188.480469 C 62.273438 188.058594 62.984375 187.847656 63.886719 187.847656 C 64.792969 187.847656 65.503906 188.058594 66.023438 188.480469 C 66.539062 188.902344 66.796875 189.480469 66.796875 190.207031 C 66.796875 190.726562 66.648438 191.171875 66.355469 191.535156 C 66.058594 191.894531 65.652344 192.140625 65.125 192.273438 C 65.71875 192.410156 66.183594 192.679688 66.511719 193.085938 C 66.84375 193.488281 67.011719 193.976562 67.011719 194.558594 C 67.011719 195.441406 66.742188 196.121094 66.203125 196.59375 C 65.664062 197.066406 64.890625 197.300781 63.886719 197.300781 C 62.882812 197.300781 62.109375 197.066406 61.570312 196.59375 C 61.03125 196.121094 60.761719 195.441406 60.761719 194.558594 C 60.761719 193.976562 60.925781 193.488281 61.261719 193.085938 C 61.59375 192.679688 62.058594 192.410156 62.652344 192.273438 Z M 62.203125 190.324219 C 62.203125 190.796875 62.347656 191.164062 62.644531 191.429688 C 62.9375 191.691406 63.351562 191.824219 63.886719 191.824219 C 64.414062 191.824219 64.828125 191.691406 65.128906 191.429688 C 65.425781 191.164062 65.578125 190.796875 65.578125 190.324219 C 65.578125 189.851562 65.425781 189.484375 65.128906 189.21875 C 64.828125 188.953125 64.414062 188.824219 63.886719 188.824219 C 63.351562 188.824219 62.9375 188.953125 62.644531 189.21875 C 62.347656 189.484375 62.203125 189.851562 62.203125 190.324219 Z M 62.203125 190.324219 "/>
<g clip-path="url(#clip2)" clip-rule="nonzero">
<path style="fill:none;stroke-width:0.8;stroke-linecap:square;stroke-linejoin:round;stroke:rgb(69.019608%,69.019608%,69.019608%);stroke-opacity:1;stroke-miterlimit:4;" d="M 78.825 143.1 L 78.825 7.2 " transform="matrix(1.25,0,0,1.25,0,0)"/>
</g>
<path style="fill:none;stroke-width:0.8;stroke-linecap:butt;stroke-linejoin:round;stroke:rgb(0%,0%,0%);stroke-opacity:1;stroke-miterlimit:4;" d="M -0.001389 0 L -0.001389 3.5 " transform="matrix(1.25,0,0,1.25,98.532986,178.875)"/>
<path style=" stroke:none;fill-rule:nonzero;fill:rgb(0%,0%,0%);fill-opacity:1;" d="M 90.644531 192.6875 L 98.46875 192.6875 L 98.46875 193.722656 L 90.644531 193.722656 Z M 90.644531 192.6875 "/>
<path style=" stroke:none;fill-rule:nonzero;fill:rgb(0%,0%,0%);fill-opacity:1;" d="M 103.917969 192.078125 C 103.367188 192.078125 102.925781 192.265625 102.601562 192.644531 C 102.28125 193.023438 102.117188 193.539062 102.117188 194.199219 C 102.117188 194.855469 102.28125 195.371094 102.601562 195.753906 C 102.925781 196.132812 103.367188 196.324219 103.917969 196.324219 C 104.472656 196.324219 104.910156 196.132812 105.234375 195.753906 C 105.558594 195.371094 105.71875 194.855469 105.71875 194.199219 C 105.71875 193.539062 105.558594 193.023438 105.234375 192.644531 C 104.910156 192.265625 104.472656 192.078125 103.917969 192.078125 Z M 106.367188 188.210938 L 106.367188 189.335938 C 106.058594 189.1875 105.746094 189.078125 105.429688 189 C 105.113281 188.921875 104.800781 188.882812 104.492188 188.882812 C 103.679688 188.882812 103.054688 189.15625 102.625 189.707031 C 102.199219 190.257812 101.953125 191.085938 101.890625 192.199219 C 102.132812 191.84375 102.433594 191.570312 102.792969 191.382812 C 103.15625 191.195312 103.558594 191.101562 103.992188 191.101562 C 104.90625 191.101562 105.628906 191.378906 106.160156 191.933594 C 106.691406 192.488281 106.957031 193.242188 106.957031 194.199219 C 106.957031 195.136719 106.683594 195.886719 106.128906 196.453125 C 105.574219 197.019531 104.839844 197.300781 103.917969 197.300781 C 102.863281 197.300781 102.058594 196.898438 101.5 196.089844 C 100.945312 195.28125 100.664062 194.109375 100.664062 192.578125 C 100.664062 191.136719 101.007812 189.988281 101.691406 189.132812 C 102.375 188.273438 103.292969 187.847656 104.441406 187.847656 C 104.753906 187.847656 105.066406 187.875 105.378906 187.9375 C 105.695312 188 106.023438 188.089844 106.367188 188.210938 Z M 106.367188 188.210938 "/>
<g clip-path="url(#clip3)" clip-rule="nonzero">
<path style="fill:none;stroke-width:0.8;stroke-linecap:square;stroke-linejoin:round;stroke:rgb(69.019608%,69.019608%,69.019608%);stroke-opacity:1;stroke-miterlimit:4;" d="M 110.73125 143.1 L 110.73125 7.2 " transform="matrix(1.25,0,0,1.25,0,0)"/>
</g>
<path style="fill:none;stroke-width:0.8;stroke-linecap:butt;stroke-linejoin:round;stroke:rgb(0%,0%,0%);stroke-opacity:1;stroke-miterlimit:4;" d="M 0.000915 0 L 0.000915 3.5 " transform="matrix(1.25,0,0,1.25,138.412919,178.875)"/>
<path style=" stroke:none;fill-rule:nonzero;fill:rgb(0%,0%,0%);fill-opacity:1;" d="M 130.523438 192.6875 L 138.347656 192.6875 L 138.347656 193.722656 L 130.523438 193.722656 Z M 130.523438 192.6875 "/>
<path style=" stroke:none;fill-rule:nonzero;fill:rgb(0%,0%,0%);fill-opacity:1;" d="M 144.398438 189.085938 L 141.285156 193.949219 L 144.398438 193.949219 Z M 144.074219 188.011719 L 145.625 188.011719 L 145.625 193.949219 L 146.925781 193.949219 L 146.925781 194.976562 L 145.625 194.976562 L 145.625 197.125 L 144.398438 197.125 L 144.398438 194.976562 L 140.285156 194.976562 L 140.285156 193.785156 Z M 144.074219 188.011719 "/>
<g clip-path="url(#clip4)" clip-rule="nonzero">
<path style="fill:none;stroke-width:0.8;stroke-linecap:square;stroke-linejoin:round;stroke:rgb(69.019608%,69.019608%,69.019608%);stroke-opacity:1;stroke-miterlimit:4;" d="M 142.634375 143.1 L 142.634375 7.2 " transform="matrix(1.25,0,0,1.25,0,0)"/>
</g>
<path style="fill:none;stroke-width:0.8;stroke-linecap:butt;stroke-linejoin:round;stroke:rgb(0%,0%,0%);stroke-opacity:1;stroke-miterlimit:4;" d="M 0.000094 0 L 0.000094 3.5 " transform="matrix(1.25,0,0,1.25,178.292851,178.875)"/>
<path style=" stroke:none;fill-rule:nonzero;fill:rgb(0%,0%,0%);fill-opacity:1;" d="M 170.402344 192.6875 L 178.226562 192.6875 L 178.226562 193.722656 L 170.402344 193.722656 Z M 170.402344 192.6875 "/>
<path style=" stroke:none;fill-rule:nonzero;fill:rgb(0%,0%,0%);fill-opacity:1;" d="M 181.949219 196.085938 L 186.253906 196.085938 L 186.253906 197.125 L 180.46875 197.125 L 180.46875 196.085938 C 180.9375 195.601562 181.574219 194.953125 182.378906 194.136719 C 183.1875 193.320312 183.695312 192.792969 183.902344 192.558594 C 184.296875 192.113281 184.574219 191.738281 184.730469 191.433594 C 184.886719 191.125 184.964844 190.824219 184.964844 190.527344 C 184.964844 190.042969 184.796875 189.648438 184.457031 189.34375 C 184.117188 189.035156 183.675781 188.882812 183.128906 188.882812 C 182.742188 188.882812 182.332031 188.949219 181.902344 189.085938 C 181.476562 189.21875 181.015625 189.421875 180.527344 189.695312 L 180.527344 188.449219 C 181.023438 188.25 181.488281 188.101562 181.917969 188 C 182.351562 187.898438 182.746094 187.847656 183.105469 187.847656 C 184.050781 187.847656 184.800781 188.082031 185.363281 188.554688 C 185.925781 189.027344 186.203125 189.65625 186.203125 190.445312 C 186.203125 190.820312 186.132812 191.175781 185.992188 191.511719 C 185.855469 191.847656 185.597656 192.242188 185.226562 192.699219 C 185.125 192.816406 184.804688 193.15625 184.257812 193.722656 C 183.714844 194.285156 182.945312 195.074219 181.949219 196.085938 Z M 181.949219 196.085938 "/>
<g clip-path="url(#clip5)" clip-rule="nonzero">
<path style="fill:none;stroke-width:0.8;stroke-linecap:square;stroke-linejoin:round;stroke:rgb(69.019608%,69.019608%,69.019608%);stroke-opacity:1;stroke-miterlimit:4;" d="M 174.5375 143.1 L 174.5375 7.2 " transform="matrix(1.25,0,0,1.25,0,0)"/>
</g>
<path style="fill:none;stroke-width:0.8;stroke-linecap:butt;stroke-linejoin:round;stroke:rgb(0%,0%,0%);stroke-opacity:1;stroke-miterlimit:4;" d="M -0.000727 0 L -0.000727 3.5 " transform="matrix(1.25,0,0,1.25,218.172784,178.875)"/>
<path style=" stroke:none;fill-rule:nonzero;fill:rgb(0%,0%,0%);fill-opacity:1;" d="M 218.167969 188.824219 C 217.535156 188.824219 217.058594 189.136719 216.738281 189.761719 C 216.417969 190.382812 216.257812 191.324219 216.257812 192.578125 C 216.257812 193.824219 216.417969 194.761719 216.738281 195.386719 C 217.058594 196.011719 217.535156 196.324219 218.167969 196.324219 C 218.808594 196.324219 219.289062 196.011719 219.605469 195.386719 C 219.925781 194.761719 220.085938 193.824219 220.085938 192.578125 C 220.085938 191.324219 219.925781 190.382812 219.605469 189.761719 C 219.289062 189.136719 218.808594 188.824219 218.167969 188.824219 Z M 218.167969 187.847656 C 219.191406 187.847656 219.972656 188.25 220.511719 189.058594 C 221.050781 189.867188 221.320312 191.039062 221.320312 192.578125 C 221.320312 194.109375 221.050781 195.28125 220.511719 196.089844 C 219.972656 196.898438 219.191406 197.300781 218.167969 197.300781 C 217.148438 197.300781 216.367188 196.898438 215.828125 196.089844 C 215.289062 195.28125 215.019531 194.109375 215.019531 192.578125 C 215.019531 191.039062 215.289062 189.867188 215.828125 189.058594 C 216.367188 188.25 217.148438 187.847656 218.167969 187.847656 Z M 218.167969 187.847656 "/>
<g clip-path="url(#clip6)" clip-rule="nonzero">
<path style="fill:none;stroke-width:0.8;stroke-linecap:square;stroke-linejoin:round;stroke:rgb(69.019608%,69.019608%,69.019608%);stroke-opacity:1;stroke-miterlimit:4;" d="M 206.440625 143.1 L 206.440625 7.2 " transform="matrix(1.25,0,0,1.25,0,0)"/>
</g>
<path style="fill:none;stroke-width:0.8;stroke-linecap:butt;stroke-linejoin:round;stroke:rgb(0%,0%,0%);stroke-opacity:1;stroke-miterlimit:4;" d="M -0.001548 0 L -0.001548 3.5 " transform="matrix(1.25,0,0,1.25,258.052716,178.875)"/>
<path style=" stroke:none;fill-rule:nonzero;fill:rgb(0%,0%,0%);fill-opacity:1;" d="M 256.472656 196.085938 L 260.777344 196.085938 L 260.777344 197.125 L 254.992188 197.125 L 254.992188 196.085938 C 255.460938 195.601562 256.097656 194.953125 256.902344 194.136719 C 257.710938 193.320312 258.21875 192.792969 258.425781 192.558594 C 258.820312 192.113281 259.097656 191.738281 259.253906 191.433594 C 259.410156 191.125 259.488281 190.824219 259.488281 190.527344 C 259.488281 190.042969 259.320312 189.648438 258.980469 189.34375 C 258.640625 189.035156 258.199219 188.882812 257.652344 188.882812 C 257.265625 188.882812 256.855469 188.949219 256.425781 189.085938 C 256 189.21875 255.539062 189.421875 255.050781 189.695312 L 255.050781 188.449219 C 255.546875 188.25 256.011719 188.101562 256.441406 188 C 256.875 187.898438 257.269531 187.847656 257.628906 187.847656 C 258.574219 187.847656 259.324219 188.082031 259.886719 188.554688 C 260.449219 189.027344 260.726562 189.65625 260.726562 190.445312 C 260.726562 190.820312 260.65625 191.175781 260.515625 191.511719 C 260.378906 191.847656 260.121094 192.242188 259.75 192.699219 C 259.648438 192.816406 259.328125 193.15625 258.78125 193.722656 C 258.238281 194.285156 257.46875 195.074219 256.472656 196.085938 Z M 256.472656 196.085938 "/>
<g clip-path="url(#clip7)" clip-rule="nonzero">
<path style="fill:none;stroke-width:0.8;stroke-linecap:square;stroke-linejoin:round;stroke:rgb(69.019608%,69.019608%,69.019608%);stroke-opacity:1;stroke-miterlimit:4;" d="M 238.346875 143.1 L 238.346875 7.2 " transform="matrix(1.25,0,0,1.25,0,0)"/>
</g>
<path style="fill:none;stroke-width:0.8;stroke-linecap:butt;stroke-linejoin:round;stroke:rgb(0%,0%,0%);stroke-opacity:1;stroke-miterlimit:4;" d="M 0.000757 0 L 0.000757 3.5 " transform="matrix(1.25,0,0,1.25,297.932647,178.875)"/>
<path style=" stroke:none;fill-rule:nonzero;fill:rgb(0%,0%,0%);fill-opacity:1;" d="M 298.679688 189.085938 L 295.566406 193.949219 L 298.679688 193.949219 Z M 298.355469 188.011719 L 299.90625 188.011719 L 299.90625 193.949219 L 301.207031 193.949219 L 301.207031 194.976562 L 299.90625 194.976562 L 299.90625 197.125 L 298.679688 197.125 L 298.679688 194.976562 L 294.566406 194.976562 L 294.566406 193.785156 Z M 298.355469 188.011719 "/>
<g clip-path="url(#clip8)" clip-rule="nonzero">
<path style="fill:none;stroke-width:0.8;stroke-linecap:square;stroke-linejoin:round;stroke:rgb(69.019608%,69.019608%,69.019608%);stroke-opacity:1;stroke-miterlimit:4;" d="M 270.25 143.1 L 270.25 7.2 " transform="matrix(1.25,0,0,1.25,0,0)"/>
</g>
<path style="fill:none;stroke-width:0.8;stroke-linecap:butt;stroke-linejoin:round;stroke:rgb(0%,0%,0%);stroke-opacity:1;stroke-miterlimit:4;" d="M -0.000064 0 L -0.000064 3.5 " transform="matrix(1.25,0,0,1.25,337.81258,178.875)"/>
<path style=" stroke:none;fill-rule:nonzero;fill:rgb(0%,0%,0%);fill-opacity:1;" d="M 337.964844 192.078125 C 337.410156 192.078125 336.972656 192.265625 336.648438 192.644531 C 336.324219 193.023438 336.164062 193.539062 336.164062 194.199219 C 336.164062 194.855469 336.324219 195.371094 336.648438 195.753906 C 336.972656 196.132812 337.410156 196.324219 337.964844 196.324219 C 338.515625 196.324219 338.953125 196.132812 339.277344 195.753906 C 339.601562 195.371094 339.761719 194.855469 339.761719 194.199219 C 339.761719 193.539062 339.601562 193.023438 339.277344 192.644531 C 338.953125 192.265625 338.515625 192.078125 337.964844 192.078125 Z M 340.410156 188.210938 L 340.410156 189.335938 C 340.101562 189.1875 339.789062 189.078125 339.472656 189 C 339.15625 188.921875 338.84375 188.882812 338.535156 188.882812 C 337.722656 188.882812 337.101562 189.15625 336.671875 189.707031 C 336.242188 190.257812 335.996094 191.085938 335.9375 192.199219 C 336.175781 191.84375 336.476562 191.570312 336.839844 191.382812 C 337.203125 191.195312 337.601562 191.101562 338.035156 191.101562 C 338.949219 191.101562 339.675781 191.378906 340.207031 191.933594 C 340.738281 192.488281 341.003906 193.242188 341.003906 194.199219 C 341.003906 195.136719 340.726562 195.886719 340.171875 196.453125 C 339.617188 197.019531 338.882812 197.300781 337.964844 197.300781 C 336.910156 197.300781 336.101562 196.898438 335.546875 196.089844 C 334.988281 195.28125 334.710938 194.109375 334.710938 192.578125 C 334.710938 191.136719 335.050781 189.988281 335.734375 189.132812 C 336.417969 188.273438 337.335938 187.847656 338.488281 187.847656 C 338.796875 187.847656 339.109375 187.875 339.425781 187.9375 C 339.738281 188 340.066406 188.089844 340.410156 188.210938 Z M 340.410156 188.210938 "/>
<g clip-path="url(#clip9)" clip-rule="nonzero">
<path style="fill:none;stroke-width:0.8;stroke-linecap:square;stroke-linejoin:round;stroke:rgb(69.019608%,69.019608%,69.019608%);stroke-opacity:1;stroke-miterlimit:4;" d="M 302.153125 143.1 L 302.153125 7.2 " transform="matrix(1.25,0,0,1.25,0,0)"/>
</g>
<path style="fill:none;stroke-width:0.8;stroke-linecap:butt;stroke-linejoin:round;stroke:rgb(0%,0%,0%);stroke-opacity:1;stroke-miterlimit:4;" d="M -0.000885 0 L -0.000885 3.5 " transform="matrix(1.25,0,0,1.25,377.692513,178.875)"/>
<path style=" stroke:none;fill-rule:nonzero;fill:rgb(0%,0%,0%);fill-opacity:1;" d="M 377.6875 192.796875 C 377.101562 192.796875 376.640625 192.953125 376.304688 193.265625 C 375.972656 193.578125 375.804688 194.011719 375.804688 194.558594 C 375.804688 195.109375 375.972656 195.539062 376.304688 195.855469 C 376.640625 196.167969 377.101562 196.324219 377.6875 196.324219 C 378.273438 196.324219 378.734375 196.167969 379.074219 195.851562 C 379.410156 195.535156 379.582031 195.105469 379.582031 194.558594 C 379.582031 194.011719 379.414062 193.578125 379.078125 193.265625 C 378.742188 192.953125 378.28125 192.796875 377.6875 192.796875 Z M 376.457031 192.273438 C 375.925781 192.140625 375.515625 191.894531 375.21875 191.535156 C 374.925781 191.171875 374.777344 190.726562 374.777344 190.207031 C 374.777344 189.480469 375.039062 188.902344 375.554688 188.480469 C 376.074219 188.058594 376.785156 187.847656 377.6875 187.847656 C 378.597656 187.847656 379.308594 188.058594 379.824219 188.480469 C 380.34375 188.902344 380.601562 189.480469 380.601562 190.207031 C 380.601562 190.726562 380.453125 191.171875 380.15625 191.535156 C 379.863281 191.894531 379.453125 192.140625 378.929688 192.273438 C 379.523438 192.410156 379.984375 192.679688 380.316406 193.085938 C 380.648438 193.488281 380.8125 193.976562 380.8125 194.558594 C 380.8125 195.441406 380.542969 196.121094 380.003906 196.59375 C 379.464844 197.066406 378.695312 197.300781 377.6875 197.300781 C 376.683594 197.300781 375.914062 197.066406 375.371094 196.59375 C 374.832031 196.121094 374.5625 195.441406 374.5625 194.558594 C 374.5625 193.976562 374.730469 193.488281 375.0625 193.085938 C 375.398438 192.679688 375.863281 192.410156 376.457031 192.273438 Z M 376.003906 190.324219 C 376.003906 190.796875 376.152344 191.164062 376.445312 191.429688 C 376.742188 191.691406 377.15625 191.824219 377.6875 191.824219 C 378.21875 191.824219 378.632812 191.691406 378.929688 191.429688 C 379.230469 191.164062 379.378906 190.796875 379.378906 190.324219 C 379.378906 189.851562 379.230469 189.484375 378.929688 189.21875 C 378.632812 188.953125 378.21875 188.824219 377.6875 188.824219 C 377.15625 188.824219 376.742188 188.953125 376.445312 189.21875 C 376.152344 189.484375 376.003906 189.851562 376.003906 190.324219 Z M 376.003906 190.324219 "/>
<path style=" stroke:none;fill-rule:nonzero;fill:rgb(0%,0%,0%);fill-opacity:1;" d="M 220.335938 207.386719 L 217.867188 210.710938 L 220.464844 214.222656 L 219.140625 214.222656 L 217.148438 211.535156 L 215.164062 214.222656 L 213.835938 214.222656 L 216.492188 210.644531 L 214.0625 207.386719 L 215.386719 207.386719 L 217.199219 209.820312 L 219.011719 207.386719 Z M 220.335938 207.386719 "/>
<g clip-path="url(#clip10)" clip-rule="nonzero">
<path style="fill:none;stroke-width:0.8;stroke-linecap:square;stroke-linejoin:round;stroke:rgb(69.019608%,69.019608%,69.019608%);stroke-opacity:1;stroke-miterlimit:4;" d="M 34.240625 136.921875 L 313.240625 136.921875 " transform="matrix(1.25,0,0,1.25,0,0)"/>
</g>
<path style="fill:none;stroke-width:0.8;stroke-linecap:butt;stroke-linejoin:round;stroke:rgb(0%,0%,0%);stroke-opacity:1;stroke-miterlimit:4;" d="M 0 -0.000852 L -3.5 -0.000852 " transform="matrix(1.25,0,0,1.25,42.800781,171.153409)"/>
<path style=" stroke:none;fill-rule:nonzero;fill:rgb(0%,0%,0%);fill-opacity:1;" d="M 30.070312 167.601562 C 29.4375 167.601562 28.960938 167.914062 28.640625 168.539062 C 28.320312 169.164062 28.160156 170.101562 28.160156 171.355469 C 28.160156 172.605469 28.320312 173.542969 28.640625 174.167969 C 28.960938 174.792969 29.4375 175.105469 30.070312 175.105469 C 30.710938 175.105469 31.1875 174.792969 31.507812 174.167969 C 31.828125 173.542969 31.988281 172.605469 31.988281 171.355469 C 31.988281 170.101562 31.828125 169.164062 31.507812 168.539062 C 31.1875 167.914062 30.710938 167.601562 30.070312 167.601562 Z M 30.070312 166.625 C 31.09375 166.625 31.875 167.03125 32.414062 167.839844 C 32.953125 168.644531 33.21875 169.816406 33.21875 171.355469 C 33.21875 172.890625 32.953125 174.0625 32.414062 174.871094 C 31.875 175.675781 31.09375 176.082031 30.070312 176.082031 C 29.050781 176.082031 28.269531 175.675781 27.730469 174.871094 C 27.191406 174.0625 26.921875 172.890625 26.921875 171.355469 C 26.921875 169.816406 27.191406 168.644531 27.730469 167.839844 C 28.269531 167.03125 29.050781 166.625 30.070312 166.625 Z M 30.070312 166.625 "/>
<g clip-path="url(#clip11)" clip-rule="nonzero">
<path style="fill:none;stroke-width:0.8;stroke-linecap:square;stroke-linejoin:round;stroke:rgb(69.019608%,69.019608%,69.019608%);stroke-opacity:1;stroke-miterlimit:4;" d="M 34.240625 105.646875 L 313.240625 105.646875 " transform="matrix(1.25,0,0,1.25,0,0)"/>
</g>
<path style="fill:none;stroke-width:0.8;stroke-linecap:butt;stroke-linejoin:round;stroke:rgb(0%,0%,0%);stroke-opacity:1;stroke-miterlimit:4;" d="M 0 0.00148 L -3.5 0.00148 " transform="matrix(1.25,0,0,1.25,42.800781,132.056744)"/>
<path style=" stroke:none;fill-rule:nonzero;fill:rgb(0%,0%,0%);fill-opacity:1;" d="M 28.496094 135.769531 L 32.796875 135.769531 L 32.796875 136.804688 L 27.015625 136.804688 L 27.015625 135.769531 C 27.480469 135.285156 28.117188 134.632812 28.925781 133.820312 C 29.734375 133.003906 30.242188 132.476562 30.449219 132.238281 C 30.84375 131.796875 31.117188 131.421875 31.273438 131.113281 C 31.433594 130.808594 31.511719 130.503906 31.511719 130.207031 C 31.511719 129.722656 31.34375 129.328125 31 129.023438 C 30.664062 128.71875 30.21875 128.566406 29.671875 128.566406 C 29.289062 128.566406 28.878906 128.632812 28.449219 128.765625 C 28.019531 128.902344 27.5625 129.105469 27.074219 129.378906 L 27.074219 128.132812 C 27.570312 127.933594 28.035156 127.78125 28.464844 127.679688 C 28.898438 127.578125 29.292969 127.527344 29.648438 127.527344 C 30.59375 127.527344 31.347656 127.765625 31.90625 128.238281 C 32.46875 128.707031 32.75 129.339844 32.75 130.128906 C 32.75 130.503906 32.679688 130.859375 32.539062 131.195312 C 32.398438 131.527344 32.144531 131.925781 31.773438 132.378906 C 31.671875 132.5 31.347656 132.839844 30.804688 133.402344 C 30.257812 133.96875 29.488281 134.753906 28.496094 135.769531 Z M 28.496094 135.769531 "/>
<g clip-path="url(#clip12)" clip-rule="nonzero">
<path style="fill:none;stroke-width:0.8;stroke-linecap:square;stroke-linejoin:round;stroke:rgb(69.019608%,69.019608%,69.019608%);stroke-opacity:1;stroke-miterlimit:4;" d="M 34.240625 74.36875 L 313.240625 74.36875 " transform="matrix(1.25,0,0,1.25,0,0)"/>
</g>
<path style="fill:none;stroke-width:0.8;stroke-linecap:butt;stroke-linejoin:round;stroke:rgb(0%,0%,0%);stroke-opacity:1;stroke-miterlimit:4;" d="M 0 0.000686 L -3.5 0.000686 " transform="matrix(1.25,0,0,1.25,42.800781,92.96008)"/>
<path style=" stroke:none;fill-rule:nonzero;fill:rgb(0%,0%,0%);fill-opacity:1;" d="M 30.820312 89.671875 L 27.710938 94.535156 L 30.820312 94.535156 Z M 30.5 88.597656 L 32.046875 88.597656 L 32.046875 94.535156 L 33.351562 94.535156 L 33.351562 95.5625 L 32.046875 95.5625 L 32.046875 97.710938 L 30.820312 97.710938 L 30.820312 95.5625 L 26.710938 95.5625 L 26.710938 94.371094 Z M 30.5 88.597656 "/>
<g clip-path="url(#clip13)" clip-rule="nonzero">
<path style="fill:none;stroke-width:0.8;stroke-linecap:square;stroke-linejoin:round;stroke:rgb(69.019608%,69.019608%,69.019608%);stroke-opacity:1;stroke-miterlimit:4;" d="M 34.240625 43.090625 L 313.240625 43.090625 " transform="matrix(1.25,0,0,1.25,0,0)"/>
</g>
<path style="fill:none;stroke-width:0.8;stroke-linecap:butt;stroke-linejoin:round;stroke:rgb(0%,0%,0%);stroke-opacity:1;stroke-miterlimit:4;" d="M 0 -0.000107 L -3.5 -0.000107 " transform="matrix(1.25,0,0,1.25,42.800781,53.863415)"/>
<path style=" stroke:none;fill-rule:nonzero;fill:rgb(0%,0%,0%);fill-opacity:1;" d="M 30.226562 53.566406 C 29.671875 53.566406 29.234375 53.753906 28.90625 54.132812 C 28.585938 54.511719 28.421875 55.03125 28.421875 55.6875 C 28.421875 56.34375 28.585938 56.863281 28.90625 57.242188 C 29.234375 57.625 29.671875 57.8125 30.226562 57.8125 C 30.777344 57.8125 31.214844 57.625 31.539062 57.242188 C 31.863281 56.863281 32.023438 56.34375 32.023438 55.6875 C 32.023438 55.03125 31.863281 54.511719 31.539062 54.132812 C 31.214844 53.753906 30.777344 53.566406 30.226562 53.566406 Z M 32.671875 49.699219 L 32.671875 50.824219 C 32.363281 50.675781 32.050781 50.566406 31.734375 50.488281 C 31.417969 50.410156 31.105469 50.371094 30.796875 50.371094 C 29.984375 50.371094 29.359375 50.648438 28.929688 51.195312 C 28.503906 51.746094 28.257812 52.574219 28.195312 53.6875 C 28.4375 53.332031 28.738281 53.0625 29.101562 52.871094 C 29.460938 52.683594 29.863281 52.589844 30.296875 52.589844 C 31.210938 52.589844 31.9375 52.867188 32.46875 53.421875 C 33 53.976562 33.265625 54.734375 33.265625 55.6875 C 33.265625 56.625 32.988281 57.375 32.433594 57.941406 C 31.878906 58.507812 31.144531 58.789062 30.226562 58.789062 C 29.171875 58.789062 28.363281 58.386719 27.804688 57.578125 C 27.25 56.769531 26.96875 55.597656 26.96875 54.066406 C 26.96875 52.625 27.3125 51.476562 27.996094 50.621094 C 28.679688 49.761719 29.597656 49.335938 30.75 49.335938 C 31.058594 49.335938 31.371094 49.367188 31.6875 49.425781 C 32 49.488281 32.328125 49.578125 32.671875 49.699219 Z M 32.671875 49.699219 "/>
<g clip-path="url(#clip14)" clip-rule="nonzero">
<path style="fill:none;stroke-width:0.8;stroke-linecap:square;stroke-linejoin:round;stroke:rgb(69.019608%,69.019608%,69.019608%);stroke-opacity:1;stroke-miterlimit:4;" d="M 34.240625 11.8125 L 313.240625 11.8125 " transform="matrix(1.25,0,0,1.25,0,0)"/>
</g>
<path style="fill:none;stroke-width:0.8;stroke-linecap:butt;stroke-linejoin:round;stroke:rgb(0%,0%,0%);stroke-opacity:1;stroke-miterlimit:4;" d="M 0 -0.0009 L -3.5 -0.0009 " transform="matrix(1.25,0,0,1.25,42.800781,14.76675)"/>
<path style=" stroke:none;fill-rule:nonzero;fill:rgb(0%,0%,0%);fill-opacity:1;" d="M 30.070312 15.1875 C 29.484375 15.1875 29.023438 15.34375 28.6875 15.660156 C 28.351562 15.972656 28.1875 16.402344 28.1875 16.953125 C 28.1875 17.5 28.351562 17.933594 28.6875 18.246094 C 29.023438 18.558594 29.484375 18.71875 30.070312 18.71875 C 30.65625 18.71875 31.117188 18.558594 31.453125 18.246094 C 31.792969 17.929688 31.960938 17.496094 31.960938 16.953125 C 31.960938 16.402344 31.796875 15.972656 31.460938 15.660156 C 31.125 15.34375 30.660156 15.1875 30.070312 15.1875 Z M 28.835938 14.664062 C 28.308594 14.535156 27.898438 14.289062 27.601562 13.925781 C 27.308594 13.5625 27.160156 13.121094 27.160156 12.601562 C 27.160156 11.871094 27.417969 11.296875 27.9375 10.875 C 28.457031 10.449219 29.167969 10.238281 30.070312 10.238281 C 30.976562 10.238281 31.691406 10.449219 32.207031 10.875 C 32.722656 11.296875 32.984375 11.871094 32.984375 12.601562 C 32.984375 13.121094 32.835938 13.5625 32.539062 13.925781 C 32.246094 14.289062 31.835938 14.535156 31.3125 14.664062 C 31.90625 14.800781 32.367188 15.074219 32.695312 15.476562 C 33.03125 15.878906 33.195312 16.371094 33.195312 16.953125 C 33.195312 17.835938 32.925781 18.515625 32.386719 18.988281 C 31.847656 19.457031 31.074219 19.695312 30.070312 19.695312 C 29.066406 19.695312 28.292969 19.457031 27.753906 18.988281 C 27.214844 18.515625 26.945312 17.835938 26.945312 16.953125 C 26.945312 16.371094 27.113281 15.878906 27.445312 15.476562 C 27.78125 15.074219 28.242188 14.800781 28.835938 14.664062 Z M 28.386719 12.71875 C 28.386719 13.1875 28.535156 13.554688 28.828125 13.820312 C 29.125 14.085938 29.539062 14.21875 30.070312 14.21875 C 30.601562 14.21875 31.015625 14.085938 31.3125 13.820312 C 31.613281 13.554688 31.761719 13.1875 31.761719 12.71875 C 31.761719 12.246094 31.613281 11.875 31.3125 11.613281 C 31.015625 11.347656 30.601562 11.214844 30.070312 11.214844 C 29.539062 11.214844 29.125 11.347656 28.828125 11.613281 C 28.535156 11.875 28.386719 12.246094 28.386719 12.71875 Z M 28.386719 12.71875 "/>
<path style=" stroke:none;fill-rule:nonzero;fill:rgb(0%,0%,0%);fill-opacity:1;" d="M 12.710938 109.347656 C 12.636719 109.472656 12.585938 109.609375 12.550781 109.757812 C 12.515625 109.90625 12.5 110.070312 12.5 110.25 C 12.5 110.882812 12.703125 111.371094 13.117188 111.710938 C 13.53125 112.050781 14.125 112.222656 14.898438 112.222656 L 18.5 112.222656 L 18.5 113.351562 L 11.664062 113.351562 L 11.664062 112.222656 L 12.726562 112.222656 C 12.308594 111.984375 12 111.675781 11.800781 111.300781 C 11.597656 110.921875 11.5 110.460938 11.5 109.917969 C 11.5 109.84375 11.503906 109.757812 11.515625 109.664062 C 11.523438 109.570312 11.539062 109.464844 11.558594 109.351562 Z M 12.710938 109.347656 "/>
<path style=" stroke:none;fill-rule:nonzero;fill:rgb(0%,0%,0%);fill-opacity:1;" d="M 14.800781 102.601562 L 15.347656 102.601562 L 15.347656 107.765625 C 16.121094 107.714844 16.710938 107.484375 17.117188 107.066406 C 17.519531 106.648438 17.722656 106.070312 17.722656 105.324219 C 17.722656 104.894531 17.671875 104.476562 17.566406 104.070312 C 17.460938 103.664062 17.300781 103.261719 17.089844 102.863281 L 18.152344 102.863281 C 18.320312 103.265625 18.453125 103.679688 18.542969 104.105469 C 18.632812 104.527344 18.675781 104.957031 18.675781 105.390625 C 18.675781 106.480469 18.359375 107.347656 17.726562 107.984375 C 17.089844 108.621094 16.230469 108.9375 15.148438 108.9375 C 14.027344 108.9375 13.140625 108.636719 12.484375 108.03125 C 11.828125 107.425781 11.5 106.613281 11.5 105.585938 C 11.5 104.667969 11.792969 103.941406 12.386719 103.40625 C 12.976562 102.871094 13.78125 102.601562 14.800781 102.601562 Z M 14.46875 103.726562 C 13.855469 103.734375 13.367188 103.90625 13 104.242188 C 12.632812 104.578125 12.449219 105.019531 12.449219 105.574219 C 12.449219 106.199219 12.625 106.703125 12.980469 107.078125 C 13.335938 107.453125 13.832031 107.671875 14.476562 107.730469 Z M 14.46875 103.726562 "/>
<path style=" stroke:none;fill-rule:nonzero;fill:rgb(0%,0%,0%);fill-opacity:1;" d="M 9 100.757812 L 9 99.636719 L 18.5 99.636719 L 18.5 100.757812 Z M 9 100.757812 "/>
<path style=" stroke:none;fill-rule:nonzero;fill:rgb(0%,0%,0%);fill-opacity:1;" d="M 15.800781 97.402344 L 11.664062 97.402344 L 11.664062 96.277344 L 15.757812 96.277344 C 16.40625 96.277344 16.890625 96.152344 17.214844 95.902344 C 17.539062 95.648438 17.699219 95.269531 17.699219 94.765625 C 17.699219 94.160156 17.507812 93.679688 17.121094 93.328125 C 16.734375 92.976562 16.207031 92.800781 15.539062 92.800781 L 11.664062 92.800781 L 11.664062 91.675781 L 18.5 91.675781 L 18.5 92.800781 L 17.449219 92.800781 C 17.863281 93.070312 18.171875 93.386719 18.375 93.75 C 18.574219 94.109375 18.675781 94.527344 18.675781 95.003906 C 18.675781 95.789062 18.433594 96.382812 17.945312 96.792969 C 17.457031 97.199219 16.742188 97.402344 15.800781 97.402344 Z M 11.5 94.574219 Z M 11.5 94.574219 "/>
<path style=" stroke:none;fill-rule:nonzero;fill:rgb(0%,0%,0%);fill-opacity:1;" d="M 9.015625 86.667969 C 9.949219 87.210938 10.875 87.617188 11.792969 87.882812 C 12.707031 88.144531 13.632812 88.277344 14.574219 88.277344 C 15.511719 88.277344 16.445312 88.144531 17.367188 87.878906 C 18.289062 87.609375 19.214844 87.207031 20.148438 86.667969 L 20.148438 87.644531 C 19.191406 88.253906 18.25 88.710938 17.328125 89.011719 C 16.402344 89.316406 15.484375 89.46875 14.574219 89.46875 C 13.667969 89.46875 12.753906 89.316406 11.835938 89.015625 C 10.914062 88.714844 9.972656 88.257812 9.015625 87.644531 Z M 9.015625 86.667969 "/>
<path style=" stroke:none;fill-rule:nonzero;fill:rgb(0%,0%,0%);fill-opacity:1;" d="M 11.664062 78.804688 L 14.988281 81.277344 L 18.5 78.675781 L 18.5 80 L 15.8125 81.992188 L 18.5 83.980469 L 18.5 85.304688 L 14.921875 82.648438 L 11.664062 85.078125 L 11.664062 83.753906 L 14.097656 81.941406 L 11.664062 80.128906 Z M 11.664062 78.804688 "/>
<path style=" stroke:none;fill-rule:nonzero;fill:rgb(0%,0%,0%);fill-opacity:1;" d="M 9.015625 77.265625 L 9.015625 76.289062 C 9.972656 75.679688 10.914062 75.222656 11.835938 74.917969 C 12.753906 74.617188 13.667969 74.464844 14.574219 74.464844 C 15.484375 74.464844 16.402344 74.617188 17.328125 74.917969 C 18.25 75.222656 19.191406 75.679688 20.148438 76.289062 L 20.148438 77.265625 C 19.214844 76.726562 18.289062 76.320312 17.367188 76.054688 C 16.445312 75.789062 15.511719 75.652344 14.574219 75.652344 C 13.632812 75.652344 12.707031 75.789062 11.792969 76.054688 C 10.875 76.320312 9.949219 76.726562 9.015625 77.265625 Z M 9.015625 77.265625 "/>
<path style="fill:none;stroke-width:1.5;stroke-linecap:square;stroke-linejoin:round;stroke:rgb(12.156863%,46.666667%,70.588235%);stroke-opacity:1;stroke-miterlimit:4;" d="M 46.921875 136.921875 L 174.5375 136.921875 L 300.559375 13.378125 " transform="matrix(1.25,0,0,1.25,0,0)"/>
<path style="fill:none;stroke-width:0.8;stroke-linecap:square;stroke-linejoin:miter;stroke:rgb(0%,0%,0%);stroke-opacity:1;stroke-miterlimit:4;" d="M 34.240625 143.1 L 34.240625 7.2 " transform="matrix(1.25,0,0,1.25,0,0)"/>
<path style="fill:none;stroke-width:0.8;stroke-linecap:square;stroke-linejoin:miter;stroke:rgb(0%,0%,0%);stroke-opacity:1;stroke-miterlimit:4;" d="M 313.240625 143.1 L 313.240625 7.2 " transform="matrix(1.25,0,0,1.25,0,0)"/>
<path style="fill:none;stroke-width:0.8;stroke-linecap:square;stroke-linejoin:miter;stroke:rgb(0%,0%,0%);stroke-opacity:1;stroke-miterlimit:4;" d="M 34.240625 143.1 L 313.240625 143.1 " transform="matrix(1.25,0,0,1.25,0,0)"/>
<path style="fill:none;stroke-width:0.8;stroke-linecap:square;stroke-linejoin:miter;stroke:rgb(0%,0%,0%);stroke-opacity:1;stroke-miterlimit:4;" d="M 34.240625 7.2 L 313.240625 7.2 " transform="matrix(1.25,0,0,1.25,0,0)"/>
</g>
</svg>
