<?xml version="1.0" encoding="UTF-8"?>
<svg xmlns="http://www.w3.org/2000/svg" xmlns:xlink="http://www.w3.org/1999/xlink" width="423pt" height="226pt" viewBox="0 0 423 226" version="1.1">
<defs>
<clipPath id="clip1">
  <path d="M 80 9 L 82 9 L 82 178.875 L 80 178.875 Z M 80 9 "/>
</clipPath>
<clipPath id="clip2">
  <path d="M 120 9 L 122 9 L 122 178.875 L 120 178.875 Z M 120 9 "/>
</clipPath>
<clipPath id="clip3">
  <path d="M 160 9 L 162 9 L 162 178.875 L 160 178.875 Z M 160 9 "/>
</clipPath>
<clipPath id="clip4">
  <path d="M 199 9 L 202 9 L 202 178.875 L 199 178.875 Z M 199 9 "/>
</clipPath>
<clipPath id="clip5">
  <path d="M 239 9 L 242 9 L 242 178.875 L 239 178.875 Z M 239 9 "/>
</clipPath>
<clipPath id="clip6">
  <path d="M 279 9 L 282 9 L 282 178.875 L 279 178.875 Z M 279 9 "/>
</clipPath>
<clipPath id="clip7">
  <path d="M 319 9 L 322 9 L 322 178.875 L 319 178.875 Z M 319 9 "/>
</clipPath>
<clipPath id="clip8">
  <path d="M 359 9 L 361 9 L 361 178.875 L 359 178.875 Z M 359 9 "/>
</clipPath>
<clipPath id="clip9">
  <path d="M 399 9 L 401 9 L 401 178.875 L 399 178.875 Z M 399 9 "/>
</clipPath>
<clipPath id="clip10">
  <path d="M 65.203125 170 L 413.953125 170 L 413.953125 172 L 65.203125 172 Z M 65.203125 170 "/>
</clipPath>
<clipPath id="clip11">
  <path d="M 65.203125 131 L 413.953125 131 L 413.953125 134 L 65.203125 134 Z M 65.203125 131 "/>
</clipPath>
<clipPath id="clip12">
  <path d="M 65.203125 93 L 413.953125 93 L 413.953125 95 L 65.203125 95 Z M 65.203125 93 "/>
</clipPath>
<clipPath id="clip13">
  <path d="M 65.203125 54 L 413.953125 54 L 413.953125 57 L 65.203125 57 Z M 65.203125 54 "/>
</clipPath>
<clipPath id="clip14">
  <path d="M 65.203125 16 L 413.953125 16 L 413.953125 18 L 65.203125 18 Z M 65.203125 16 "/>
</clipPath>
</defs>
<g id="surface1">
<path style=" stroke:none;fill-rule:nonzero;fill:rgb(100%,100%,100%);fill-opacity:1;" d="M 65.203125 178.875 L 413.949219 178.875 L 413.949219 9 L 65.203125 9 Z M 65.203125 178.875 "/>
<g clip-path="url(#clip1)" clip-rule="nonzero">
<path style="fill:none;stroke-width:0.8;stroke-linecap:square;stroke-linejoin:round;stroke:rgb(69.019608%,69.019608%,69.019608%);stroke-opacity:1;stroke-miterlimit:4;" d="M 64.84375 143.1 L 64.84375 7.2 " transform="matrix(1.25,0,0,1.25,0,0)"/>
</g>
<path style="fill:none;stroke-width:0.8;stroke-linecap:butt;stroke-linejoin:round;stroke:rgb(0%,0%,0%);stroke-opacity:1;stroke-miterlimit:4;" d="M 0.000994 0 L 0.000994 3.5 " transform="matrix(1.25,0,0,1.25,81.053445,178.875)"/>
<path style=" stroke:none;fill-rule:nonzero;fill:rgb(0%,0%,0%);fill-opacity:1;" d="M 73.164062 192.6875 L 80.988281 192.6875 L 80.988281 193.722656 L 73.164062 193.722656 Z M 73.164062 192.6875 "/>
<path style=" stroke:none;fill-rule:nonzero;fill:rgb(0%,0%,0%);fill-opacity:1;" d="M 86.285156 192.796875 C 85.699219 192.796875 85.238281 192.953125 84.902344 193.265625 C 84.570312 193.578125 84.402344 194.011719 84.402344 194.558594 C 84.402344 195.109375 84.570312 195.539062 84.902344 195.855469 C 85.238281 196.167969 85.699219 196.324219 86.285156 196.324219 C 86.871094 196.324219 87.332031 196.167969 87.671875 195.851562 C 88.007812 195.535156 88.179688 195.105469 88.179688 194.558594 C 88.179688 194.011719 88.011719 193.578125 87.675781 193.265625 C 87.339844 192.953125 86.878906 192.796875 86.285156 192.796875 Z M 85.054688 192.273438 C 84.523438 192.140625 84.113281 191.894531 83.816406 191.535156 C 83.523438 191.171875 83.375 190.726562 83.375 190.207031 C 83.375 189.480469 83.636719 188.902344 84.152344 188.480469 C 84.671875 188.058594 85.382812 187.847656 86.285156 187.847656 C 87.195312 187.847656 87.90625 188.058594 88.421875 188.480469 C 88.941406 188.902344 89.199219 189.480469 89.199219 190.207031 C 89.199219 190.726562 89.050781 191.171875 88.753906 191.535156 C 88.460938 191.894531 88.050781 192.140625 87.527344 192.273438 C 88.121094 192.410156 88.582031 192.679688 88.914062 193.085938 C 89.246094 193.488281 89.410156 193.976562 89.410156 194.558594 C 89.410156 195.441406 89.140625 196.121094 88.601562 196.59375 C 88.0625 197.066406 87.292969 197.300781 86.285156 197.300781 C 85.28125 197.300781 84.511719 197.066406 83.96875 196.59375 C 83.429688 196.121094 83.160156 195.441406 83.160156 194.558594 C 83.160156 193.976562 83.328125 193.488281 83.660156 193.085938 C 83.996094 192.679688 84.460938 192.410156 85.054688 192.273438 Z M 84.601562 190.324219 C 84.601562 190.796875 84.75 191.164062 85.042969 191.429688 C 85.339844 191.691406 85.753906 191.824219 86.285156 191.824219 C 86.816406 191.824219 87.230469 191.691406 87.527344 191.429688 C 87.828125 191.164062 87.976562 190.796875 87.976562 190.324219 C 87.976562 189.851562 87.828125 189.484375 87.527344 189.21875 C 87.230469 188.953125 86.816406 188.824219 86.285156 188.824219 C 85.753906 188.824219 85.339844 188.953125 85.042969 189.21875 C 84.75 189.484375 84.601562 189.851562 84.601562 190.324219 Z M 84.601562 190.324219 "/>
<g clip-path="url(#clip2)" clip-rule="nonzero">
<path style="fill:none;stroke-width:0.8;stroke-linecap:square;stroke-linejoin:round;stroke:rgb(69.019608%,69.019608%,69.019608%);stroke-opacity:1;stroke-miterlimit:4;" d="M 96.746875 143.1 L 96.746875 7.2 " transform="matrix(1.25,0,0,1.25,0,0)"/>
</g>
<path style="fill:none;stroke-width:0.8;stroke-linecap:butt;stroke-linejoin:round;stroke:rgb(0%,0%,0%);stroke-opacity:1;stroke-miterlimit:4;" d="M 0.000173 0 L 0.000173 3.5 " transform="matrix(1.25,0,0,1.25,120.933378,178.875)"/>
<path style=" stroke:none;fill-rule:nonzero;fill:rgb(0%,0%,0%);fill-opacity:1;" d="M 113.042969 192.6875 L 120.867188 192.6875 L 120.867188 193.722656 L 113.042969 193.722656 Z M 113.042969 192.6875 "/>
<path style=" stroke:none;fill-rule:nonzero;fill:rgb(0%,0%,0%);fill-opacity:1;" d="M 126.320312 192.078125 C 125.765625 192.078125 125.328125 192.265625 125.003906 192.644531 C 124.679688 193.023438 124.519531 193.539062 124.519531 194.199219 C 124.519531 194.855469 124.679688 195.371094 125.003906 195.753906 C 125.328125 196.132812 125.765625 196.324219 126.320312 196.324219 C 126.875 196.324219 127.3125 196.132812 127.632812 195.753906 C 127.957031 195.371094 128.117188 194.855469 128.117188 194.199219 C 128.117188 193.539062 127.957031 193.023438 127.632812 192.644531 C 127.3125 192.265625 126.875 192.078125 126.320312 192.078125 Z M 128.765625 188.210938 L 128.765625 189.335938 C 128.457031 189.1875 128.144531 189.078125 127.828125 189 C 127.515625 188.921875 127.203125 188.882812 126.890625 188.882812 C 126.078125 188.882812 125.457031 189.15625 125.027344 189.707031 C 124.597656 190.257812 124.355469 191.085938 124.292969 192.199219 C 124.53125 191.84375 124.832031 191.570312 125.195312 191.382812 C 125.558594 191.195312 125.957031 191.101562 126.390625 191.101562 C 127.308594 191.101562 128.03125 191.378906 128.5625 191.933594 C 129.09375 192.488281 129.359375 193.242188 129.359375 194.199219 C 129.359375 195.136719 129.082031 195.886719 128.527344 196.453125 C 127.976562 197.019531 127.238281 197.300781 126.320312 197.300781 C 125.265625 197.300781 124.460938 196.898438 123.902344 196.089844 C 123.34375 195.28125 123.066406 194.109375 123.066406 192.578125 C 123.066406 191.136719 123.40625 189.988281 124.089844 189.132812 C 124.773438 188.273438 125.691406 187.847656 126.84375 187.847656 C 127.152344 187.847656 127.464844 187.875 127.78125 187.9375 C 128.097656 188 128.425781 188.089844 128.765625 188.210938 Z M 128.765625 188.210938 "/>
<g clip-path="url(#clip3)" clip-rule="nonzero">
<path style="fill:none;stroke-width:0.8;stroke-linecap:square;stroke-linejoin:round;stroke:rgb(69.019608%,69.019608%,69.019608%);stroke-opacity:1;stroke-miterlimit:4;" d="M 128.65 143.1 L 128.65 7.2 " transform="matrix(1.25,0,0,1.25,0,0)"/>
</g>
<path style="fill:none;stroke-width:0.8;stroke-linecap:butt;stroke-linejoin:round;stroke:rgb(0%,0%,0%);stroke-opacity:1;stroke-miterlimit:4;" d="M -0.000647 0 L -0.000647 3.5 " transform="matrix(1.25,0,0,1.25,160.813309,178.875)"/>
<path style=" stroke:none;fill-rule:nonzero;fill:rgb(0%,0%,0%);fill-opacity:1;" d="M 152.921875 192.6875 L 160.746094 192.6875 L 160.746094 193.722656 L 152.921875 193.722656 Z M 152.921875 192.6875 "/>
<path style=" stroke:none;fill-rule:nonzero;fill:rgb(0%,0%,0%);fill-opacity:1;" d="M 166.796875 189.085938 L 163.683594 193.949219 L 166.796875 193.949219 Z M 166.472656 188.011719 L 168.023438 188.011719 L 168.023438 193.949219 L 169.324219 193.949219 L 169.324219 194.976562 L 168.023438 194.976562 L 168.023438 197.125 L 166.796875 197.125 L 166.796875 194.976562 L 162.683594 194.976562 L 162.683594 193.785156 Z M 166.472656 188.011719 "/>
<g clip-path="url(#clip4)" clip-rule="nonzero">
<path style="fill:none;stroke-width:0.8;stroke-linecap:square;stroke-linejoin:round;stroke:rgb(69.019608%,69.019608%,69.019608%);stroke-opacity:1;stroke-miterlimit:4;" d="M 160.553125 143.1 L 160.553125 7.2 " transform="matrix(1.25,0,0,1.25,0,0)"/>
</g>
<path style="fill:none;stroke-width:0.8;stroke-linecap:butt;stroke-linejoin:round;stroke:rgb(0%,0%,0%);stroke-opacity:1;stroke-miterlimit:4;" d="M -0.001468 0 L -0.001468 3.5 " transform="matrix(1.25,0,0,1.25,200.693241,178.875)"/>
<path style=" stroke:none;fill-rule:nonzero;fill:rgb(0%,0%,0%);fill-opacity:1;" d="M 192.804688 192.6875 L 200.628906 192.6875 L 200.628906 193.722656 L 192.804688 193.722656 Z M 192.804688 192.6875 "/>
<path style=" stroke:none;fill-rule:nonzero;fill:rgb(0%,0%,0%);fill-opacity:1;" d="M 204.351562 196.085938 L 208.652344 196.085938 L 208.652344 197.125 L 202.867188 197.125 L 202.867188 196.085938 C 203.335938 195.601562 203.972656 194.953125 204.78125 194.136719 C 205.589844 193.320312 206.097656 192.792969 206.304688 192.558594 C 206.699219 192.113281 206.972656 191.738281 207.128906 191.433594 C 207.289062 191.125 207.367188 190.824219 207.367188 190.527344 C 207.367188 190.042969 207.195312 189.648438 206.855469 189.34375 C 206.515625 189.035156 206.074219 188.882812 205.527344 188.882812 C 205.140625 188.882812 204.734375 188.949219 204.304688 189.085938 C 203.875 189.21875 203.417969 189.421875 202.929688 189.695312 L 202.929688 188.449219 C 203.425781 188.25 203.890625 188.101562 204.320312 188 C 204.753906 187.898438 205.148438 187.847656 205.503906 187.847656 C 206.449219 187.847656 207.203125 188.082031 207.761719 188.554688 C 208.324219 189.027344 208.605469 189.65625 208.605469 190.445312 C 208.605469 190.820312 208.535156 191.175781 208.394531 191.511719 C 208.253906 191.847656 208 192.242188 207.628906 192.699219 C 207.527344 192.816406 207.203125 193.15625 206.65625 193.722656 C 206.113281 194.285156 205.34375 195.074219 204.351562 196.085938 Z M 204.351562 196.085938 "/>
<g clip-path="url(#clip5)" clip-rule="nonzero">
<path style="fill:none;stroke-width:0.8;stroke-linecap:square;stroke-linejoin:round;stroke:rgb(69.019608%,69.019608%,69.019608%);stroke-opacity:1;stroke-miterlimit:4;" d="M 192.459375 143.1 L 192.459375 7.2 " transform="matrix(1.25,0,0,1.25,0,0)"/>
</g>
<path style="fill:none;stroke-width:0.8;stroke-linecap:butt;stroke-linejoin:round;stroke:rgb(0%,0%,0%);stroke-opacity:1;stroke-miterlimit:4;" d="M 0.000836 0 L 0.000836 3.5 " transform="matrix(1.25,0,0,1.25,240.573174,178.875)"/>
<path style=" stroke:none;fill-rule:nonzero;fill:rgb(0%,0%,0%);fill-opacity:1;" d="M 240.570312 188.824219 C 239.933594 188.824219 239.457031 189.136719 239.136719 189.761719 C 238.820312 190.382812 238.660156 191.324219 238.660156 192.578125 C 238.660156 193.824219 238.820312 194.761719 239.136719 195.386719 C 239.457031 196.011719 239.933594 196.324219 240.570312 196.324219 C 241.207031 196.324219 241.6875 196.011719 242.007812 195.386719 C 242.328125 194.761719 242.488281 193.824219 242.488281 192.578125 C 242.488281 191.324219 242.328125 190.382812 242.007812 189.761719 C 241.6875 189.136719 241.207031 188.824219 240.570312 188.824219 Z M 240.570312 187.847656 C 241.589844 187.847656 242.371094 188.25 242.910156 189.058594 C 243.449219 189.867188 243.71875 191.039062 243.71875 192.578125 C 243.71875 194.109375 243.449219 195.28125 242.910156 196.089844 C 242.371094 196.898438 241.589844 197.300781 240.570312 197.300781 C 239.546875 197.300781 238.769531 196.898438 238.230469 196.089844 C 237.691406 195.28125 237.421875 194.109375 237.421875 192.578125 C 237.421875 191.039062 237.691406 189.867188 238.230469 189.058594 C 238.769531 188.25 239.546875 187.847656 240.570312 187.847656 Z M 240.570312 187.847656 "/>
<g clip-path="url(#clip6)" clip-rule="nonzero">
<path style="fill:none;stroke-width:0.8;stroke-linecap:square;stroke-linejoin:round;stroke:rgb(69.019608%,69.019608%,69.019608%);stroke-opacity:1;stroke-miterlimit:4;" d="M 224.3625 143.1 L 224.3625 7.2 " transform="matrix(1.25,0,0,1.25,0,0)"/>
</g>
<path style="fill:none;stroke-width:0.8;stroke-linecap:butt;stroke-linejoin:round;stroke:rgb(0%,0%,0%);stroke-opacity:1;stroke-miterlimit:4;" d="M 0.000015 0 L 0.000015 3.5 " transform="matrix(1.25,0,0,1.25,280.453106,178.875)"/>
<path style=" stroke:none;fill-rule:nonzero;fill:rgb(0%,0%,0%);fill-opacity:1;" d="M 278.875 196.085938 L 283.175781 196.085938 L 283.175781 197.125 L 277.390625 197.125 L 277.390625 196.085938 C 277.859375 195.601562 278.496094 194.953125 279.304688 194.136719 C 280.113281 193.320312 280.621094 192.792969 280.828125 192.558594 C 281.222656 192.113281 281.496094 191.738281 281.652344 191.433594 C 281.8125 191.125 281.890625 190.824219 281.890625 190.527344 C 281.890625 190.042969 281.71875 189.648438 281.378906 189.34375 C 281.039062 189.035156 280.597656 188.882812 280.050781 188.882812 C 279.664062 188.882812 279.257812 188.949219 278.828125 189.085938 C 278.398438 189.21875 277.941406 189.421875 277.453125 189.695312 L 277.453125 188.449219 C 277.949219 188.25 278.414062 188.101562 278.84375 188 C 279.277344 187.898438 279.671875 187.847656 280.027344 187.847656 C 280.972656 187.847656 281.726562 188.082031 282.285156 188.554688 C 282.847656 189.027344 283.128906 189.65625 283.128906 190.445312 C 283.128906 190.820312 283.058594 191.175781 282.917969 191.511719 C 282.777344 191.847656 282.523438 192.242188 282.152344 192.699219 C 282.050781 192.816406 281.726562 193.15625 281.179688 193.722656 C 280.636719 194.285156 279.867188 195.074219 278.875 196.085938 Z M 278.875 196.085938 "/>
<g clip-path="url(#clip7)" clip-rule="nonzero">
<path style="fill:none;stroke-width:0.8;stroke-linecap:square;stroke-linejoin:round;stroke:rgb(69.019608%,69.019608%,69.019608%);stroke-opacity:1;stroke-miterlimit:4;" d="M 256.265625 143.1 L 256.265625 7.2 " transform="matrix(1.25,0,0,1.25,0,0)"/>
</g>
<path style="fill:none;stroke-width:0.8;stroke-linecap:butt;stroke-linejoin:round;stroke:rgb(0%,0%,0%);stroke-opacity:1;stroke-miterlimit:4;" d="M -0.000806 0 L -0.000806 3.5 " transform="matrix(1.25,0,0,1.25,320.333039,178.875)"/>
<path style=" stroke:none;fill-rule:nonzero;fill:rgb(0%,0%,0%);fill-opacity:1;" d="M 321.082031 189.085938 L 317.96875 193.949219 L 321.082031 193.949219 Z M 320.757812 188.011719 L 322.308594 188.011719 L 322.308594 193.949219 L 323.609375 193.949219 L 323.609375 194.976562 L 322.308594 194.976562 L 322.308594 197.125 L 321.082031 197.125 L 321.082031 194.976562 L 316.96875 194.976562 L 316.96875 193.785156 Z M 320.757812 188.011719 "/>
<g clip-path="url(#clip8)" clip-rule="nonzero">
<path style="fill:none;stroke-width:0.8;stroke-linecap:square;stroke-linejoin:round;stroke:rgb(69.019608%,69.019608%,69.019608%);stroke-opacity:1;stroke-miterlimit:4;" d="M 288.171875 143.1 L 288.171875 7.2 " transform="matrix(1.25,0,0,1.25,0,0)"/>
</g>
<path style="fill:none;stroke-width:0.8;stroke-linecap:butt;stroke-linejoin:round;stroke:rgb(0%,0%,0%);stroke-opacity:1;stroke-miterlimit:4;" d="M 0.001498 0 L 0.001498 3.5 " transform="matrix(1.25,0,0,1.25,360.212971,178.875)"/>
<path style=" stroke:none;fill-rule:nonzero;fill:rgb(0%,0%,0%);fill-opacity:1;" d="M 360.363281 192.078125 C 359.808594 192.078125 359.371094 192.265625 359.046875 192.644531 C 358.722656 193.023438 358.5625 193.539062 358.5625 194.199219 C 358.5625 194.855469 358.722656 195.371094 359.046875 195.753906 C 359.371094 196.132812 359.808594 196.324219 360.363281 196.324219 C 360.917969 196.324219 361.355469 196.132812 361.679688 195.753906 C 362 195.371094 362.164062 194.855469 362.164062 194.199219 C 362.164062 193.539062 362 193.023438 361.679688 192.644531 C 361.355469 192.265625 360.917969 192.078125 360.363281 192.078125 Z M 362.8125 188.210938 L 362.8125 189.335938 C 362.5 189.1875 362.1875 189.078125 361.875 189 C 361.558594 188.921875 361.246094 188.882812 360.9375 188.882812 C 360.121094 188.882812 359.5 189.15625 359.070312 189.707031 C 358.640625 190.257812 358.398438 191.085938 358.335938 192.199219 C 358.574219 191.84375 358.875 191.570312 359.238281 191.382812 C 359.601562 191.195312 360 191.101562 360.4375 191.101562 C 361.351562 191.101562 362.074219 191.378906 362.605469 191.933594 C 363.136719 192.488281 363.402344 193.242188 363.402344 194.199219 C 363.402344 195.136719 363.125 195.886719 362.574219 196.453125 C 362.019531 197.019531 361.28125 197.300781 360.363281 197.300781 C 359.308594 197.300781 358.503906 196.898438 357.945312 196.089844 C 357.386719 195.28125 357.109375 194.109375 357.109375 192.578125 C 357.109375 191.136719 357.453125 189.988281 358.136719 189.132812 C 358.820312 188.273438 359.734375 187.847656 360.886719 187.847656 C 361.195312 187.847656 361.507812 187.875 361.824219 187.9375 C 362.140625 188 362.46875 188.089844 362.8125 188.210938 Z M 362.8125 188.210938 "/>
<g clip-path="url(#clip9)" clip-rule="nonzero">
<path style="fill:none;stroke-width:0.8;stroke-linecap:square;stroke-linejoin:round;stroke:rgb(69.019608%,69.019608%,69.019608%);stroke-opacity:1;stroke-miterlimit:4;" d="M 320.075 143.1 L 320.075 7.2 " transform="matrix(1.25,0,0,1.25,0,0)"/>
</g>
<path style="fill:none;stroke-width:0.8;stroke-linecap:butt;stroke-linejoin:round;stroke:rgb(0%,0%,0%);stroke-opacity:1;stroke-miterlimit:4;" d="M 0.000677 0 L 0.000677 3.5 " transform="matrix(1.25,0,0,1.25,400.092904,178.875)"/>
<path style=" stroke:none;fill-rule:nonzero;fill:rgb(0%,0%,0%);fill-opacity:1;" d="M 400.089844 192.796875 C 399.503906 192.796875 399.042969 192.953125 398.707031 193.265625 C 398.371094 193.578125 398.203125 194.011719 398.203125 194.558594 C 398.203125 195.109375 398.371094 195.539062 398.707031 195.855469 C 399.042969 196.167969 399.503906 196.324219 400.089844 196.324219 C 400.675781 196.324219 401.136719 196.167969 401.472656 195.851562 C 401.8125 195.535156 401.980469 195.105469 401.980469 194.558594 C 401.980469 194.011719 401.8125 193.578125 401.476562 193.265625 C 401.144531 192.953125 400.679688 192.796875 400.089844 192.796875 Z M 398.855469 192.273438 C 398.328125 192.140625 397.914062 191.894531 397.621094 191.535156 C 397.324219 191.171875 397.179688 190.726562 397.179688 190.207031 C 397.179688 189.480469 397.4375 188.902344 397.957031 188.480469 C 398.476562 188.058594 399.1875 187.847656 400.089844 187.847656 C 400.996094 187.847656 401.707031 188.058594 402.226562 188.480469 C 402.742188 188.902344 403 189.480469 403 190.207031 C 403 190.726562 402.851562 191.171875 402.558594 191.535156 C 402.261719 191.894531 401.855469 192.140625 401.328125 192.273438 C 401.921875 192.410156 402.386719 192.679688 402.714844 193.085938 C 403.046875 193.488281 403.214844 193.976562 403.214844 194.558594 C 403.214844 195.441406 402.945312 196.121094 402.40625 196.59375 C 401.867188 197.066406 401.09375 197.300781 400.089844 197.300781 C 399.085938 197.300781 398.3125 197.066406 397.773438 196.59375 C 397.234375 196.121094 396.964844 195.441406 396.964844 194.558594 C 396.964844 193.976562 397.128906 193.488281 397.464844 193.085938 C 397.796875 192.679688 398.261719 192.410156 398.855469 192.273438 Z M 398.40625 190.324219 C 398.40625 190.796875 398.550781 191.164062 398.847656 191.429688 C 399.140625 191.691406 399.554688 191.824219 400.089844 191.824219 C 400.617188 191.824219 401.03125 191.691406 401.332031 191.429688 C 401.628906 191.164062 401.78125 190.796875 401.78125 190.324219 C 401.78125 189.851562 401.628906 189.484375 401.332031 189.21875 C 401.03125 188.953125 400.617188 188.824219 400.089844 188.824219 C 399.554688 188.824219 399.140625 188.953125 398.847656 189.21875 C 398.550781 189.484375 398.40625 189.851562 398.40625 190.324219 Z M 398.40625 190.324219 "/>
<path style=" stroke:none;fill-rule:nonzero;fill:rgb(0%,0%,0%);fill-opacity:1;" d="M 242.738281 207.386719 L 240.265625 210.710938 L 242.863281 214.222656 L 241.539062 214.222656 L 239.550781 211.535156 L 237.5625 214.222656 L 236.234375 214.222656 L 238.890625 210.644531 L 236.460938 207.386719 L 237.785156 207.386719 L 239.597656 209.820312 L 241.410156 207.386719 Z M 242.738281 207.386719 "/>
<g clip-path="url(#clip10)" clip-rule="nonzero">
<path style="fill:none;stroke-width:0.8;stroke-linecap:square;stroke-linejoin:round;stroke:rgb(69.019608%,69.019608%,69.019608%);stroke-opacity:1;stroke-miterlimit:4;" d="M 52.1625 136.921875 L 331.159375 136.921875 " transform="matrix(1.25,0,0,1.25,0,0)"/>
</g>
<path style="fill:none;stroke-width:0.8;stroke-linecap:butt;stroke-linejoin:round;stroke:rgb(0%,0%,0%);stroke-opacity:1;stroke-miterlimit:4;" d="M 0.001562 -0.000867 L -3.498438 -0.000867 " transform="matrix(1.25,0,0,1.25,65.201172,171.153427)"/>
<path style=" stroke:none;fill-rule:nonzero;fill:rgb(0%,0%,0%);fill-opacity:1;" d="M 27.421875 171.464844 L 35.246094 171.464844 L 35.246094 172.503906 L 27.421875 172.503906 Z M 27.421875 171.464844 "/>
<path style=" stroke:none;fill-rule:nonzero;fill:rgb(0%,0%,0%);fill-opacity:1;" d="M 38.121094 174.867188 L 40.136719 174.867188 L 40.136719 167.914062 L 37.945312 168.351562 L 37.945312 167.230469 L 40.125 166.789062 L 41.355469 166.789062 L 41.355469 174.867188 L 43.371094 174.867188 L 43.371094 175.902344 L 38.121094 175.902344 Z M 38.121094 174.867188 "/>
<path style=" stroke:none;fill-rule:nonzero;fill:rgb(0%,0%,0%);fill-opacity:1;" d="M 45.859375 174.351562 L 47.148438 174.351562 L 47.148438 175.902344 L 45.859375 175.902344 Z M 45.859375 174.351562 "/>
<path style=" stroke:none;fill-rule:nonzero;fill:rgb(0%,0%,0%);fill-opacity:1;" d="M 52.46875 167.601562 C 51.835938 167.601562 51.359375 167.914062 51.039062 168.539062 C 50.71875 169.164062 50.558594 170.101562 50.558594 171.355469 C 50.558594 172.605469 50.71875 173.542969 51.039062 174.167969 C 51.359375 174.792969 51.835938 175.105469 52.46875 175.105469 C 53.109375 175.105469 53.589844 174.792969 53.90625 174.167969 C 54.226562 173.542969 54.386719 172.605469 54.386719 171.355469 C 54.386719 170.101562 54.226562 169.164062 53.90625 168.539062 C 53.589844 167.914062 53.109375 167.601562 52.46875 167.601562 Z M 52.46875 166.625 C 53.492188 166.625 54.273438 167.03125 54.8125 167.839844 C 55.351562 168.644531 55.621094 169.816406 55.621094 171.355469 C 55.621094 172.890625 55.351562 174.0625 54.8125 174.871094 C 54.273438 175.675781 53.492188 176.082031 52.46875 176.082031 C 51.449219 176.082031 50.667969 175.675781 50.128906 174.871094 C 49.589844 174.0625 49.320312 172.890625 49.320312 171.355469 C 49.320312 169.816406 49.589844 168.644531 50.128906 167.839844 C 50.667969 167.03125 51.449219 166.625 52.46875 166.625 Z M 52.46875 166.625 "/>
<g clip-path="url(#clip11)" clip-rule="nonzero">
<path style="fill:none;stroke-width:0.8;stroke-linecap:square;stroke-linejoin:round;stroke:rgb(69.019608%,69.019608%,69.019608%);stroke-opacity:1;stroke-miterlimit:4;" d="M 52.1625 106.0375 L 331.159375 106.0375 " transform="matrix(1.25,0,0,1.25,0,0)"/>
</g>
<path style="fill:none;stroke-width:0.8;stroke-linecap:butt;stroke-linejoin:round;stroke:rgb(0%,0%,0%);stroke-opacity:1;stroke-miterlimit:4;" d="M 0.001562 0.00113 L -3.498438 0.00113 " transform="matrix(1.25,0,0,1.25,65.201172,132.545463)"/>
<path style=" stroke:none;fill-rule:nonzero;fill:rgb(0%,0%,0%);fill-opacity:1;" d="M 27.421875 132.855469 L 35.246094 132.855469 L 35.246094 133.894531 L 27.421875 133.894531 Z M 27.421875 132.855469 "/>
<path style=" stroke:none;fill-rule:nonzero;fill:rgb(0%,0%,0%);fill-opacity:1;" d="M 40.542969 128.992188 C 39.910156 128.992188 39.433594 129.304688 39.113281 129.929688 C 38.792969 130.554688 38.632812 131.492188 38.632812 132.746094 C 38.632812 133.996094 38.792969 134.933594 39.113281 135.558594 C 39.433594 136.183594 39.910156 136.496094 40.542969 136.496094 C 41.183594 136.496094 41.664062 136.183594 41.980469 135.558594 C 42.300781 134.933594 42.460938 133.996094 42.460938 132.746094 C 42.460938 131.492188 42.300781 130.554688 41.980469 129.929688 C 41.664062 129.304688 41.183594 128.992188 40.542969 128.992188 Z M 40.542969 128.015625 C 41.566406 128.015625 42.347656 128.421875 42.886719 129.230469 C 43.425781 130.039062 43.695312 131.210938 43.695312 132.746094 C 43.695312 134.28125 43.425781 135.453125 42.886719 136.261719 C 42.347656 137.070312 41.566406 137.472656 40.542969 137.472656 C 39.523438 137.472656 38.742188 137.070312 38.203125 136.261719 C 37.664062 135.453125 37.394531 134.28125 37.394531 132.746094 C 37.394531 131.210938 37.664062 130.039062 38.203125 129.230469 C 38.742188 128.421875 39.523438 128.015625 40.542969 128.015625 Z M 40.542969 128.015625 "/>
<path style=" stroke:none;fill-rule:nonzero;fill:rgb(0%,0%,0%);fill-opacity:1;" d="M 45.859375 135.742188 L 47.148438 135.742188 L 47.148438 137.292969 L 45.859375 137.292969 Z M 45.859375 135.742188 "/>
<path style=" stroke:none;fill-rule:nonzero;fill:rgb(0%,0%,0%);fill-opacity:1;" d="M 49.847656 128.179688 L 54.6875 128.179688 L 54.6875 129.21875 L 50.976562 129.21875 L 50.976562 131.453125 C 51.15625 131.390625 51.332031 131.347656 51.511719 131.316406 C 51.691406 131.285156 51.871094 131.269531 52.050781 131.269531 C 53.066406 131.269531 53.871094 131.550781 54.464844 132.105469 C 55.0625 132.664062 55.359375 133.417969 55.359375 134.371094 C 55.359375 135.351562 55.054688 136.113281 54.441406 136.65625 C 53.832031 137.199219 52.972656 137.472656 51.859375 137.472656 C 51.476562 137.472656 51.089844 137.441406 50.691406 137.375 C 50.296875 137.308594 49.886719 137.210938 49.460938 137.082031 L 49.460938 135.839844 C 49.828125 136.039062 50.207031 136.1875 50.597656 136.285156 C 50.988281 136.382812 51.402344 136.433594 51.835938 136.433594 C 52.539062 136.433594 53.097656 136.25 53.507812 135.878906 C 53.917969 135.507812 54.125 135.007812 54.125 134.371094 C 54.125 133.738281 53.917969 133.234375 53.507812 132.863281 C 53.097656 132.492188 52.539062 132.308594 51.835938 132.308594 C 51.507812 132.308594 51.175781 132.34375 50.847656 132.417969 C 50.523438 132.492188 50.1875 132.605469 49.847656 132.757812 Z M 49.847656 128.179688 "/>
<g clip-path="url(#clip12)" clip-rule="nonzero">
<path style="fill:none;stroke-width:0.8;stroke-linecap:square;stroke-linejoin:round;stroke:rgb(69.019608%,69.019608%,69.019608%);stroke-opacity:1;stroke-miterlimit:4;" d="M 52.1625 75.15 L 331.159375 75.15 " transform="matrix(1.25,0,0,1.25,0,0)"/>
</g>
<path style="fill:none;stroke-width:0.8;stroke-linecap:butt;stroke-linejoin:round;stroke:rgb(0%,0%,0%);stroke-opacity:1;stroke-miterlimit:4;" d="M 0.001562 0.000002 L -3.498438 0.000002 " transform="matrix(1.25,0,0,1.25,65.201172,93.937497)"/>
<path style=" stroke:none;fill-rule:nonzero;fill:rgb(0%,0%,0%);fill-opacity:1;" d="M 40.542969 90.386719 C 39.910156 90.386719 39.433594 90.699219 39.113281 91.324219 C 38.792969 91.945312 38.632812 92.886719 38.632812 94.140625 C 38.632812 95.386719 38.792969 96.324219 39.113281 96.949219 C 39.433594 97.574219 39.910156 97.886719 40.542969 97.886719 C 41.183594 97.886719 41.664062 97.574219 41.980469 96.949219 C 42.300781 96.324219 42.460938 95.386719 42.460938 94.140625 C 42.460938 92.886719 42.300781 91.945312 41.980469 91.324219 C 41.664062 90.699219 41.183594 90.386719 40.542969 90.386719 Z M 40.542969 89.410156 C 41.566406 89.410156 42.347656 89.8125 42.886719 90.621094 C 43.425781 91.429688 43.695312 92.601562 43.695312 94.140625 C 43.695312 95.671875 43.425781 96.84375 42.886719 97.652344 C 42.347656 98.460938 41.566406 98.863281 40.542969 98.863281 C 39.523438 98.863281 38.742188 98.460938 38.203125 97.652344 C 37.664062 96.84375 37.394531 95.671875 37.394531 94.140625 C 37.394531 92.601562 37.664062 91.429688 38.203125 90.621094 C 38.742188 89.8125 39.523438 89.410156 40.542969 89.410156 Z M 40.542969 89.410156 "/>
<path style=" stroke:none;fill-rule:nonzero;fill:rgb(0%,0%,0%);fill-opacity:1;" d="M 45.859375 97.136719 L 47.148438 97.136719 L 47.148438 98.6875 L 45.859375 98.6875 Z M 45.859375 97.136719 "/>
<path style=" stroke:none;fill-rule:nonzero;fill:rgb(0%,0%,0%);fill-opacity:1;" d="M 52.472656 90.386719 C 51.835938 90.386719 51.359375 90.699219 51.039062 91.324219 C 50.71875 91.945312 50.5625 92.886719 50.5625 94.140625 C 50.5625 95.386719 50.71875 96.324219 51.039062 96.949219 C 51.359375 97.574219 51.835938 97.886719 52.472656 97.886719 C 53.109375 97.886719 53.589844 97.574219 53.910156 96.949219 C 54.230469 96.324219 54.390625 95.386719 54.390625 94.140625 C 54.390625 92.886719 54.230469 91.945312 53.910156 91.324219 C 53.589844 90.699219 53.109375 90.386719 52.472656 90.386719 Z M 52.472656 89.410156 C 53.492188 89.410156 54.273438 89.8125 54.8125 90.621094 C 55.351562 91.429688 55.621094 92.601562 55.621094 94.140625 C 55.621094 95.671875 55.351562 96.84375 54.8125 97.652344 C 54.273438 98.460938 53.492188 98.863281 52.472656 98.863281 C 51.449219 98.863281 50.671875 98.460938 50.132812 97.652344 C 49.59375 96.84375 49.324219 95.671875 49.324219 94.140625 C 49.324219 92.601562 49.59375 91.429688 50.132812 90.621094 C 50.671875 89.8125 51.449219 89.410156 52.472656 89.410156 Z M 52.472656 89.410156 "/>
<g clip-path="url(#clip13)" clip-rule="nonzero">
<path style="fill:none;stroke-width:0.8;stroke-linecap:square;stroke-linejoin:round;stroke:rgb(69.019608%,69.019608%,69.019608%);stroke-opacity:1;stroke-miterlimit:4;" d="M 52.1625 44.2625 L 331.159375 44.2625 " transform="matrix(1.25,0,0,1.25,0,0)"/>
</g>
<path style="fill:none;stroke-width:0.8;stroke-linecap:butt;stroke-linejoin:round;stroke:rgb(0%,0%,0%);stroke-opacity:1;stroke-miterlimit:4;" d="M 0.001562 -0.001126 L -3.498438 -0.001126 " transform="matrix(1.25,0,0,1.25,65.201172,55.329532)"/>
<path style=" stroke:none;fill-rule:nonzero;fill:rgb(0%,0%,0%);fill-opacity:1;" d="M 40.542969 51.777344 C 39.910156 51.777344 39.433594 52.089844 39.113281 52.714844 C 38.792969 53.339844 38.632812 54.277344 38.632812 55.53125 C 38.632812 56.78125 38.792969 57.71875 39.113281 58.34375 C 39.433594 58.96875 39.910156 59.28125 40.542969 59.28125 C 41.183594 59.28125 41.664062 58.96875 41.980469 58.34375 C 42.300781 57.71875 42.460938 56.78125 42.460938 55.53125 C 42.460938 54.277344 42.300781 53.339844 41.980469 52.714844 C 41.664062 52.089844 41.183594 51.777344 40.542969 51.777344 Z M 40.542969 50.800781 C 41.566406 50.800781 42.347656 51.207031 42.886719 52.015625 C 43.425781 52.820312 43.695312 53.992188 43.695312 55.53125 C 43.695312 57.066406 43.425781 58.238281 42.886719 59.046875 C 42.347656 59.851562 41.566406 60.257812 40.542969 60.257812 C 39.523438 60.257812 38.742188 59.851562 38.203125 59.046875 C 37.664062 58.238281 37.394531 57.066406 37.394531 55.53125 C 37.394531 53.992188 37.664062 52.820312 38.203125 52.015625 C 38.742188 51.207031 39.523438 50.800781 40.542969 50.800781 Z M 40.542969 50.800781 "/>
<path style=" stroke:none;fill-rule:nonzero;fill:rgb(0%,0%,0%);fill-opacity:1;" d="M 45.859375 58.527344 L 47.148438 58.527344 L 47.148438 60.078125 L 45.859375 60.078125 Z M 45.859375 58.527344 "/>
<path style=" stroke:none;fill-rule:nonzero;fill:rgb(0%,0%,0%);fill-opacity:1;" d="M 49.847656 50.964844 L 54.6875 50.964844 L 54.6875 52.003906 L 50.976562 52.003906 L 50.976562 54.238281 C 51.15625 54.175781 51.332031 54.128906 51.511719 54.101562 C 51.691406 54.070312 51.871094 54.054688 52.050781 54.054688 C 53.066406 54.054688 53.875 54.332031 54.46875 54.890625 C 55.0625 55.449219 55.359375 56.203125 55.359375 57.15625 C 55.359375 58.136719 55.054688 58.898438 54.445312 59.441406 C 53.832031 59.984375 52.972656 60.257812 51.863281 60.257812 C 51.480469 60.257812 51.089844 60.222656 50.691406 60.160156 C 50.296875 60.09375 49.886719 59.996094 49.464844 59.867188 L 49.464844 58.625 C 49.828125 58.824219 50.207031 58.972656 50.597656 59.070312 C 50.988281 59.167969 51.402344 59.21875 51.835938 59.21875 C 52.539062 59.21875 53.097656 59.03125 53.507812 58.664062 C 53.917969 58.292969 54.125 57.789062 54.125 57.15625 C 54.125 56.519531 53.917969 56.019531 53.507812 55.648438 C 53.097656 55.277344 52.539062 55.09375 51.835938 55.09375 C 51.507812 55.09375 51.179688 55.128906 50.851562 55.203125 C 50.523438 55.273438 50.1875 55.386719 49.847656 55.542969 Z M 49.847656 50.964844 "/>
<g clip-path="url(#clip14)" clip-rule="nonzero">
<path style="fill:none;stroke-width:0.8;stroke-linecap:square;stroke-linejoin:round;stroke:rgb(69.019608%,69.019608%,69.019608%);stroke-opacity:1;stroke-miterlimit:4;" d="M 52.1625 13.378125 L 331.159375 13.378125 " transform="matrix(1.25,0,0,1.25,0,0)"/>
</g>
<path style="fill:none;stroke-width:0.8;stroke-linecap:butt;stroke-linejoin:round;stroke:rgb(0%,0%,0%);stroke-opacity:1;stroke-miterlimit:4;" d="M 0.001562 0.000871 L -3.498438 0.000871 " transform="matrix(1.25,0,0,1.25,65.201172,16.721567)"/>
<path style=" stroke:none;fill-rule:nonzero;fill:rgb(0%,0%,0%);fill-opacity:1;" d="M 38.121094 20.433594 L 40.136719 20.433594 L 40.136719 13.480469 L 37.945312 13.917969 L 37.945312 12.796875 L 40.125 12.355469 L 41.355469 12.355469 L 41.355469 20.433594 L 43.371094 20.433594 L 43.371094 21.46875 L 38.121094 21.46875 Z M 38.121094 20.433594 "/>
<path style=" stroke:none;fill-rule:nonzero;fill:rgb(0%,0%,0%);fill-opacity:1;" d="M 45.859375 19.917969 L 47.148438 19.917969 L 47.148438 21.46875 L 45.859375 21.46875 Z M 45.859375 19.917969 "/>
<path style=" stroke:none;fill-rule:nonzero;fill:rgb(0%,0%,0%);fill-opacity:1;" d="M 52.472656 13.167969 C 51.835938 13.167969 51.359375 13.480469 51.039062 14.105469 C 50.71875 14.730469 50.5625 15.667969 50.5625 16.921875 C 50.5625 18.171875 50.71875 19.109375 51.039062 19.734375 C 51.359375 20.359375 51.835938 20.671875 52.472656 20.671875 C 53.109375 20.671875 53.589844 20.359375 53.910156 19.734375 C 54.230469 19.109375 54.390625 18.171875 54.390625 16.921875 C 54.390625 15.667969 54.230469 14.730469 53.910156 14.105469 C 53.589844 13.480469 53.109375 13.167969 52.472656 13.167969 Z M 52.472656 12.191406 C 53.492188 12.191406 54.273438 12.597656 54.8125 13.40625 C 55.351562 14.214844 55.621094 15.386719 55.621094 16.921875 C 55.621094 18.457031 55.351562 19.628906 54.8125 20.4375 C 54.273438 21.246094 53.492188 21.648438 52.472656 21.648438 C 51.449219 21.648438 50.671875 21.246094 50.132812 20.4375 C 49.59375 19.628906 49.324219 18.457031 49.324219 16.921875 C 49.324219 15.386719 49.59375 14.214844 50.132812 13.40625 C 50.671875 12.597656 51.449219 12.191406 52.472656 12.191406 Z M 52.472656 12.191406 "/>
<path style=" stroke:none;fill-rule:nonzero;fill:rgb(0%,0%,0%);fill-opacity:1;" d="M 9.71875 114.425781 L 11.660156 114.425781 L 11.660156 112.113281 L 12.535156 112.113281 L 12.535156 114.425781 L 16.246094 114.425781 C 16.804688 114.425781 17.160156 114.351562 17.320312 114.199219 C 17.480469 114.046875 17.558594 113.734375 17.558594 113.265625 L 17.558594 112.113281 L 18.496094 112.113281 L 18.496094 113.265625 C 18.496094 114.132812 18.335938 114.730469 18.011719 115.0625 C 17.6875 115.390625 17.101562 115.554688 16.246094 115.554688 L 12.535156 115.554688 L 12.535156 116.378906 L 11.660156 116.378906 L 11.660156 115.554688 L 9.71875 115.554688 Z M 9.71875 114.425781 "/>
<path style=" stroke:none;fill-rule:nonzero;fill:rgb(0%,0%,0%);fill-opacity:1;" d="M 15.0625 107.53125 C 15.0625 108.4375 15.164062 109.066406 15.371094 109.417969 C 15.578125 109.765625 15.933594 109.941406 16.433594 109.941406 C 16.832031 109.941406 17.148438 109.808594 17.382812 109.546875 C 17.617188 109.285156 17.734375 108.925781 17.734375 108.476562 C 17.734375 107.851562 17.511719 107.351562 17.070312 106.976562 C 16.628906 106.601562 16.042969 106.414062 15.3125 106.414062 L 15.0625 106.414062 Z M 14.597656 105.289062 L 18.496094 105.289062 L 18.496094 106.414062 L 17.460938 106.414062 C 17.875 106.667969 18.179688 106.988281 18.378906 107.371094 C 18.578125 107.753906 18.675781 108.222656 18.675781 108.777344 C 18.675781 109.476562 18.480469 110.03125 18.085938 110.445312 C 17.691406 110.859375 17.167969 111.066406 16.507812 111.066406 C 15.738281 111.066406 15.160156 110.808594 14.769531 110.292969 C 14.378906 109.777344 14.183594 109.007812 14.183594 107.988281 L 14.183594 106.414062 L 14.070312 106.414062 C 13.554688 106.414062 13.15625 106.582031 12.871094 106.921875 C 12.589844 107.261719 12.449219 107.738281 12.449219 108.355469 C 12.449219 108.746094 12.496094 109.125 12.589844 109.496094 C 12.683594 109.867188 12.824219 110.222656 13.011719 110.5625 L 11.972656 110.5625 C 11.8125 110.152344 11.695312 109.753906 11.617188 109.367188 C 11.539062 108.980469 11.496094 108.605469 11.496094 108.238281 C 11.496094 107.25 11.753906 106.511719 12.265625 106.023438 C 12.777344 105.535156 13.554688 105.289062 14.597656 105.289062 Z M 14.597656 105.289062 "/>
<path style=" stroke:none;fill-rule:nonzero;fill:rgb(0%,0%,0%);fill-opacity:1;" d="M 14.371094 97.292969 L 18.496094 97.292969 L 18.496094 98.417969 L 14.40625 98.417969 C 13.761719 98.417969 13.277344 98.542969 12.957031 98.796875 C 12.636719 99.046875 12.472656 99.425781 12.472656 99.929688 C 12.472656 100.535156 12.667969 101.015625 13.054688 101.367188 C 13.441406 101.714844 13.964844 101.890625 14.632812 101.890625 L 18.496094 101.890625 L 18.496094 103.019531 L 11.660156 103.019531 L 11.660156 101.890625 L 12.722656 101.890625 C 12.3125 101.621094 12.003906 101.304688 11.800781 100.941406 C 11.597656 100.578125 11.496094 100.15625 11.496094 99.679688 C 11.496094 98.894531 11.742188 98.300781 12.226562 97.898438 C 12.710938 97.496094 13.425781 97.292969 14.371094 97.292969 Z M 14.371094 97.292969 "/>
<path style=" stroke:none;fill-rule:nonzero;fill:rgb(0%,0%,0%);fill-opacity:1;" d="M 14.371094 89.371094 L 18.496094 89.371094 L 18.496094 90.492188 L 14.40625 90.492188 C 13.761719 90.492188 13.277344 90.621094 12.957031 90.871094 C 12.636719 91.125 12.472656 91.503906 12.472656 92.007812 C 12.472656 92.613281 12.667969 93.09375 13.054688 93.441406 C 13.441406 93.792969 13.964844 93.96875 14.632812 93.96875 L 18.496094 93.96875 L 18.496094 95.097656 L 9 95.097656 L 9 93.96875 L 12.722656 93.96875 C 12.3125 93.699219 12.003906 93.382812 11.800781 93.019531 C 11.597656 92.65625 11.496094 92.234375 11.496094 91.757812 C 11.496094 90.972656 11.742188 90.378906 12.226562 89.976562 C 12.710938 89.574219 13.425781 89.371094 14.371094 89.371094 Z M 14.371094 89.371094 "/>
<path style=" stroke:none;fill-rule:nonzero;fill:rgb(0%,0%,0%);fill-opacity:1;" d="M 9.011719 84.433594 C 9.949219 84.980469 10.875 85.382812 11.789062 85.648438 C 12.707031 85.914062 13.632812 86.046875 14.574219 86.046875 C 15.511719 86.046875 16.441406 85.914062 17.363281 85.644531 C 18.285156 85.378906 19.214844 84.976562 20.144531 84.433594 L 20.144531 85.410156 C 19.1875 86.019531 18.25 86.476562 17.324219 86.78125 C 16.402344 87.085938 15.484375 87.234375 14.574219 87.234375 C 13.667969 87.234375 12.753906 87.085938 11.832031 86.785156 C 10.914062 86.484375 9.972656 86.023438 9.011719 85.410156 Z M 9.011719 84.433594 "/>
<path style=" stroke:none;fill-rule:nonzero;fill:rgb(0%,0%,0%);fill-opacity:1;" d="M 11.660156 76.570312 L 14.988281 79.042969 L 18.496094 76.445312 L 18.496094 77.769531 L 15.8125 79.757812 L 18.496094 81.746094 L 18.496094 83.074219 L 14.921875 80.417969 L 11.660156 82.847656 L 11.660156 81.523438 L 14.097656 79.710938 L 11.660156 77.898438 Z M 11.660156 76.570312 "/>
<path style=" stroke:none;fill-rule:nonzero;fill:rgb(0%,0%,0%);fill-opacity:1;" d="M 9.011719 75.035156 L 9.011719 74.058594 C 9.972656 73.449219 10.914062 72.992188 11.832031 72.6875 C 12.753906 72.386719 13.667969 72.234375 14.574219 72.234375 C 15.484375 72.234375 16.402344 72.386719 17.324219 72.6875 C 18.25 72.992188 19.1875 73.449219 20.144531 74.058594 L 20.144531 75.035156 C 19.214844 74.492188 18.285156 74.089844 17.363281 73.824219 C 16.441406 73.554688 15.511719 73.421875 14.574219 73.421875 C 13.632812 73.421875 12.707031 73.554688 11.789062 73.824219 C 10.875 74.089844 9.949219 74.492188 9.011719 75.035156 Z M 9.011719 75.035156 "/>
<path style="fill:none;stroke-width:1.5;stroke-linecap:square;stroke-linejoin:round;stroke:rgb(12.156863%,46.666667%,70.588235%);stroke-opacity:1;stroke-miterlimit:4;" d="M 64.84375 136.921875 L 135.03125 136.83125 L 144.603125 136.61875 L 150.984375 136.24375 L 155.76875 135.69375 L 158.959375 135.096875 L 162.15 134.21875 L 163.74375 133.6375 L 165.340625 132.93125 L 166.934375 132.084375 L 168.53125 131.0625 L 170.125 129.840625 L 171.721875 128.38125 L 173.315625 126.646875 L 174.9125 124.6 L 176.50625 122.196875 L 178.103125 119.396875 L 179.696875 116.16875 L 181.290625 112.484375 L 182.8875 108.325 L 184.48125 103.696875 L 186.078125 98.621875 L 189.26875 87.34375 L 197.24375 57.15625 L 198.840625 51.678125 L 200.434375 46.603125 L 202.03125 41.975 L 203.625 37.815625 L 205.21875 34.13125 L 206.815625 30.903125 L 208.409375 28.103125 L 210.00625 25.7 L 211.6 23.653125 L 213.196875 21.91875 L 214.790625 20.459375 L 216.3875 19.2375 L 217.98125 18.215625 L 219.578125 17.36875 L 222.76875 16.08125 L 225.95625 15.203125 L 229.146875 14.60625 L 233.934375 14.05625 L 238.71875 13.75 L 246.69375 13.515625 L 261.053125 13.4 L 312.096875 13.378125 L 318.478125 13.378125 " transform="matrix(1.25,0,0,1.25,0,0)"/>
<path style="fill:none;stroke-width:0.8;stroke-linecap:square;stroke-linejoin:miter;stroke:rgb(0%,0%,0%);stroke-opacity:1;stroke-miterlimit:4;" d="M 52.1625 143.1 L 52.1625 7.2 " transform="matrix(1.25,0,0,1.25,0,0)"/>
<path style="fill:none;stroke-width:0.8;stroke-linecap:square;stroke-linejoin:miter;stroke:rgb(0%,0%,0%);stroke-opacity:1;stroke-miterlimit:4;" d="M 331.159375 143.1 L 331.159375 7.2 " transform="matrix(1.25,0,0,1.25,0,0)"/>
<path style="fill:none;stroke-width:0.8;stroke-linecap:square;stroke-linejoin:miter;stroke:rgb(0%,0%,0%);stroke-opacity:1;stroke-miterlimit:4;" d="M 52.1625 143.1 L 331.1625 143.1 " transform="matrix(1.25,0,0,1.25,0,0)"/>
<path style="fill:none;stroke-width:0.8;stroke-linecap:square;stroke-linejoin:miter;stroke:rgb(0%,0%,0%);stroke-opacity:1;stroke-miterlimit:4;" d="M 52.1625 7.2 L 331.1625 7.2 " transform="matrix(1.25,0,0,1.25,0,0)"/>
</g>
</svg>
